<?xml version="1.0" encoding="UTF-8"?>
<svg id="Layer_1" xmlns="http://www.w3.org/2000/svg" version="1.1" xmlns:xlink="http://www.w3.org/1999/xlink" viewBox="0 0 80 80">
  <!-- Generator: Adobe Illustrator 29.8.2, SVG Export Plug-In . SVG Version: 2.1.1 Build 3)  -->
  <defs>
    <style>
      .st0 {
        fill: #c2b8a9;
      }

      .st1 {
        filter: url(#AI_GaussianBlur_43);
      }

      .st2 {
        filter: url(#AI_GaussianBlur_4);
      }

      .st3 {
        fill: #c3b8ab;
      }

      .st4 {
        fill: #fdfeff;
      }

      .st5 {
        fill: #e9e6e0;
      }

      .st6 {
        filter: url(#AI_GaussianBlur_41);
      }

      .st7 {
        fill: url(#linear-gradient);
      }

      .st8 {
        filter: url(#AI_GaussianBlur_42);
      }
    </style>
    <linearGradient id="linear-gradient" x1="35.8" y1=".3" x2="38.4" y2="29.4" gradientTransform="translate(0 80) scale(1 -1)" gradientUnits="userSpaceOnUse">
      <stop offset="0" stop-color="#c3b8ab"/>
      <stop offset=".3" stop-color="#e9e6e0"/>
    </linearGradient>
    <filter id="AI_GaussianBlur_4">
      <feGaussianBlur stdDeviation="1"/>
    </filter>
    <filter id="AI_GaussianBlur_41" data-name="AI_GaussianBlur_4">
      <feGaussianBlur stdDeviation="1"/>
    </filter>
    <filter id="AI_GaussianBlur_42" data-name="AI_GaussianBlur_4">
      <feGaussianBlur stdDeviation="1"/>
    </filter>
    <filter id="AI_GaussianBlur_43" data-name="AI_GaussianBlur_4">
      <feGaussianBlur stdDeviation="1"/>
    </filter>
  </defs>
  <path class="st5" d="M41.6,0C59.8,0,78.1.7,78.1,36s-5.6,34.9-7.9,36.6-1.1,1-1.6,1.6c-1.7,1.8-7.5,5.3-28.4,5.3S1.9,75.2,1.9,42.2,5.5,0,41.7,0h-.1Z"/>
  <path class="st7" d="M72.7,68.5c-.7.3-1.3.8-1.9,1.2-2,1.6-8.8,4.2-31.5,1.2-23.2-3.1-35-7.1-37.2-23.6,1.1,28.2,11.9,32,38.2,32s26.7-3.6,28.4-5.3c.4-.6,1-1.1,1.6-1.6.8-.6,2.1-1.9,3.3-4.6-.3.2-.6.3-.9.4v.2Z"/>
  <g class="st2">
    <path class="st4" d="M15.9,42.3c.3-2.7.4-5.2,1-7.9.2-1.1.6-2.2.8-3.3.6-2.3,1-4.7,1.4-7.1.2-1.4.6-2.9.1-4.2-.2-.7-.4-1.2-.9-1.7-.8-1.2-2-2.5-3.6-2.7-1.2-.2-2.6.4-3.3,1.4-.3.4-.6,1-.8,1.7-1.4,4.5-1.9,9.5-.4,14,.2.8.6,1.7.8,2.5.2,1.2.2,2.5.3,3.6.1,2.6.6,5.1,1,7.7s.3,3.2,1,3,.7-1.2.8-1.4c.2-.6.4-1.1.6-1.7.3-1.2.7-2.6.8-3.8h.4Z"/>
  </g>
  <g class="st6">
    <path class="st4" d="M45.7,12.3c1.2-.3,2.5-.8,3.8-1.1,1.6-.4,3.1-1,4.7-1.2,2.1-.3,4.2-.3,6.4-.3s2.3,0,3.6.4c2.1.7,3.6,2.6,4.9,4.2.6.7,1,1.3,1.2,2.1.2.6.2,1.2.2,1.9v8.5c0,1.7-.3,3.3-.6,5-.1,1.1-.3,2.3-.8,3.5-.3.8-.8,1.7-1.7,1.9h-1.2c-1.3-.4-2.3-1.7-3-2.9s-1-2.7-1.7-4c-.8-1.6-1.8-2.8-2.9-4.1-2.2-2.8-4.7-5.6-7.8-7.1-1.1-.6-2.2-.9-3.5-1.2-2.5-.8-4.9-1.4-7.4-2.2-.3,0,.7-1.2.8-1.3.4-.2.9-.2,1.3-.4,1.2-.7,2.5-1.1,3.8-1.6h-.2Z"/>
  </g>
  <g class="st8">
    <path class="st3" d="M65,38.8c0-.8-.1-1.6,0-2.5-.8-.6-1.3-1.4-1.8-2.2-.7-1.2-1-2.7-1.7-4-.8-1.6-1.8-2.8-2.9-4.1-2.2-2.8-4.7-5.6-7.8-7.1-1.1-.6-2.2-.9-3.5-1.2-2.5-.8-4.9-1.4-7.4-2.2-.3,0,.7-1.2.8-1.3.4-.2.9-.2,1.3-.4,1.2-.7,2.5-1.1,3.8-1.6.8-.2,1.4-.4,2.2-.7-.6-.3-1.1-.6-1.7-.8-1.7-.6-3.6-.4-5.3-.3-6.9.4-13.8,1-20.7,1.4-2.1.1-4.6.6-5.6,2.5-.1.3-.2.6-.3.9h.7c1.4.2,2.7,1.3,3.6,2.7.3.6.7,1.1.9,1.7.4,1.3.1,2.9-.1,4.2-.4,2.3-.9,4.8-1.4,7.1-.3,1.1-.6,2.2-.8,3.3-.6,2.6-.7,5.2-1,7.9,0,.3,0,.6-.1.8,0,.2.1.6.2.8,0,.2.1.6.3.8.2.2.4.2.8.3,8.1,2,16.6,1.8,25.1,1.6,2.5,0,4.8-.1,7.2-.3,3.9-.3,7.9-.9,11.7-1.9,1.7-.4,3.6-1.1,4-2.8.2-.9,0-1.9-.1-2.8l-.4.3Z"/>
  </g>
  <g class="st1">
    <path class="st0" d="M69.6,70.3c-.7.2-1.2.4-1.8.8-1.8,1-7.9,2.7-28.3.8-20.8-1.9-31.4-4.5-33.4-14.8,1,17.7,10.7,20.1,34.3,20.1s24.1-2.2,25.5-3.3c.4-.3.9-.7,1.4-.9.8-.3,1.9-1.2,3-2.8-.3.1-.6.2-.8.3h0Z"/>
  </g>
</svg>