<?xml version="1.0" encoding="UTF-8"?>
<svg id="Layer_1" xmlns="http://www.w3.org/2000/svg" version="1.1" xmlns:xlink="http://www.w3.org/1999/xlink" viewBox="0 0 80 80">
  <!-- Generator: Adobe Illustrator 29.8.2, SVG Export Plug-In . SVG Version: 2.1.1 Build 3)  -->
  <defs>
    <style>
      .st0 {
        filter: url(#AI_GaussianBlur_41);
      }

      .st0, .st1 {
        opacity: .3;
      }

      .st2 {
        fill: #fff;
      }

      .st3 {
        filter: url(#AI_GaussianBlur_43);
      }

      .st3, .st4 {
        opacity: .8;
      }

      .st1 {
        filter: url(#AI_GaussianBlur_42);
      }

      .st5 {
        filter: url(#AI_GaussianBlur_4);
        opacity: .2;
      }

      .st4 {
        filter: url(#AI_GaussianBlur_44);
      }
    </style>
    <filter id="AI_GaussianBlur_4">
      <feGaussianBlur stdDeviation="4"/>
    </filter>
    <filter id="AI_GaussianBlur_41" data-name="AI_GaussianBlur_4">
      <feGaussianBlur stdDeviation="4"/>
    </filter>
    <filter id="AI_GaussianBlur_42" data-name="AI_GaussianBlur_4">
      <feGaussianBlur stdDeviation="4"/>
    </filter>
    <filter id="AI_GaussianBlur_43" data-name="AI_GaussianBlur_4">
      <feGaussianBlur stdDeviation="4"/>
    </filter>
    <filter id="AI_GaussianBlur_44" data-name="AI_GaussianBlur_4">
      <feGaussianBlur stdDeviation="4"/>
    </filter>
  </defs>
  <path d="M27.4,10.7L2,54.7c-5.6,9.6,1.4,21.9,12.6,21.9h50.8c11.2,0,18.2-12.1,12.6-21.9L52.6,10.7c-5.6-9.6-19.7-9.6-25.2,0h0Z"/>
  <g class="st5">
    <path class="st2" d="M39.2,54.4l-33.1,14.2c-2.4,1.1-1.8,4.9.8,4.9,0,0,24.8-3.8,33.1-3.8s33.1,3.8,33.1,3.8c2.6,0,3.2-3.9.8-4.9l-33.1-14.2c-.6-.2-1.2-.2-1.6,0Z"/>
  </g>
  <g class="st0">
    <path class="st2" d="M28.6,42.8l7.8-34.4c.6-2.5-2-3.3-3.2-.9,0,0-9.8,23.3-13.7,30.7-4,7.4-17.9,28.1-17.9,28.1-1.2,2.2.7,4.2,2.4,2.5l23.7-24.5c.4-.4.7-.9.8-1.5h.1Z"/>
  </g>
  <g class="st1">
    <path class="st2" d="M51.5,42.8l-7.8-34.4c-.6-2.5,2-3.3,3.2-.9,0,0,9.8,23.3,13.7,30.7,4,7.4,17.9,28.1,17.9,28.1,1.2,2.2-.7,4.2-2.4,2.5l-23.7-24.5c-.4-.4-.7-.9-.8-1.5h-.1Z"/>
  </g>
  <g class="st3">
    <path class="st2" d="M24.8,40.3L35.4,7.8c.7-2.4-.9-2.6-2.1-.4,0,0-10.4,22.8-14.2,30.2S2.2,66.3,2.2,66.3c-1.2,2.2-.1,3.8,1.3,1.9l20.5-26.2c.4-.5.6-.9.8-1.5h0Z"/>
  </g>
  <g class="st4">
    <path class="st2" d="M55.2,40.3L44.6,7.8c-.7-2.4.9-2.6,2.1-.4,0,0,10.4,22.8,14.2,30.2,3.9,7.4,16.8,28.6,16.8,28.6,1.2,2.2.1,3.8-1.3,1.9l-20.5-26.2c-.4-.5-.6-.9-.8-1.5h0Z"/>
  </g>
</svg>