<?xml version="1.0" encoding="UTF-8"?>
<svg id="Layer_1" xmlns="http://www.w3.org/2000/svg" version="1.1" viewBox="0 0 80 80">
  <!-- Generator: Adobe Illustrator 29.8.2, SVG Export Plug-In . SVG Version: 2.1.1 Build 3)  -->
  <defs>
    <style>
      .st0 {
        fill: #2c408a;
      }

      .st1 {
        fill: #4358a7;
      }

      .st2 {
        fill: #3a4c9d;
      }

      .st3 {
        fill: #282f6f;
      }

      .st4 {
        fill: #4359a8;
      }

      .st5 {
        fill: #273c8f;
      }

      .st6 {
        fill: #293a88;
      }

      .st7 {
        fill: #293a89;
      }

      .st8 {
        fill: #4054a5;
      }

      .st9 {
        fill: #283577;
      }

      .st10 {
        fill: #283b89;
      }

      .st11 {
        fill: #2d3381;
      }

      .st12 {
        fill: #8b96cb;
      }

      .st13 {
        fill: #2a459c;
      }

      .st14 {
        fill: #4c61ad;
      }

      .st15 {
        fill: #33499e;
      }

      .st16 {
        fill: #273d90;
      }

      .st17 {
        fill: #3b53a4;
      }

      .st18 {
        fill: #5163ae;
      }

      .st19 {
        fill: #9da9d6;
      }

      .st20 {
        fill: #7b87c2;
      }

      .st21 {
        fill: #4456a6;
      }
    </style>
  </defs>
  <polygon class="st18" points="13.4 25.7 3.7 40.3 13.4 54.8 24.8 40.5 13.4 25.7"/>
  <polygon class="st5" points="55.3 40.5 40.2 23.8 39.8 24.1 34.7 29.5 24.8 40.1 25 40.3 24.8 40.5 40.1 56.9 55.3 40.5"/>
  <polygon class="st4" points="62.2 8 71 17.3 66.7 25.7 54.3 12.3 62.2 8"/>
  <polygon class="st1" points="71 17.3 77.7 25.4 76.4 40.3 66.7 25.7 71 17.3"/>
  <polygon class="st9" points="66.7 54.8 76.4 40.3 66.7 25.7 55.3 40.5 66.7 54.8"/>
  <polygon class="st20" points="77.7 55.1 79.8 40.2 77.7 25.4 76.4 40.3 77.7 55.1"/>
  <polygon class="st2" points="71 63.2 77.7 55.1 76.4 40.3 66.7 54.8 71 63.2"/>
  <polygon class="st16" points="62.2 72.5 71 63.2 66.7 54.8 54.3 68.2 62.2 72.5"/>
  <polygon class="st14" points="62.2 72.5 54.3 68.2 41.3 78.8 62.2 72.5"/>
  <polygon class="st15" points="54.3 68.2 66.7 54.8 55.3 40.5 40.1 56.9 54.3 68.2"/>
  <polygon class="st19" points="54.3 12.3 66.7 25.7 55.3 40.5 40.2 23.8 54.3 12.3"/>
  <polygon class="st10" points="62.2 8 54.3 12.3 40.1 .7 62.2 8"/>
  <polygon class="st17" points="54.3 12.3 40.1 .7 38.9 1.7 25.9 12.3 40.2 23.8 54.3 12.3"/>
  <polygon class="st0" points="9.1 17.3 2.4 25.4 3.7 40.3 13.4 25.7 9.1 17.3"/>
  <polygon class="st13" points="17.9 8 9.1 17.3 13.4 25.7 25.9 12.3 17.9 8"/>
  <polygon class="st7" points="17.9 8 25.9 12.3 40.1 .7 17.9 8"/>
  <polygon class="st3" points="25.9 12.3 13.4 25.7 24.8 40.5 40.2 23.8 25.9 12.3"/>
  <polygon class="st11" points="9.1 63.2 2.4 55.1 3.7 40.3 13.4 54.8 9.1 63.2"/>
  <polygon class="st21" points="17.9 72.5 9.1 63.2 13.4 54.8 25.9 68.2 17.9 72.5"/>
  <polygon class="st5" points="17.9 72.5 25.9 68.2 38.9 78.8 17.9 72.5"/>
  <polygon class="st8" points="25.9 68.2 13.4 54.8 24.8 40.5 40.1 56.9 25.9 68.2"/>
  <polygon class="st6" points="54.3 68.2 40.1 56.9 25.9 68.2 38.9 78.8 40.1 79.3 41.3 78.8 54.3 68.2"/>
  <polygon class="st12" points="2.4 55.1 .2 40.3 2.4 25.4 3.7 40.3 2.4 55.1"/>
</svg>